<?xml version="1.0" standalone="no"?>
<!DOCTYPE svg PUBLIC "-//W3C//DTD SVG 20010904//EN"
 "http://www.w3.org/TR/2001/REC-SVG-20010904/DTD/svg10.dtd">
<svg version="1.0" xmlns="http://www.w3.org/2000/svg"
 width="600.000000pt" height="600.000000pt" viewBox="0 0 600.000000 600.000000"
 preserveAspectRatio="xMidYMid meet">
<g transform="translate(0.000000,600.000000) scale(0.100000,-0.100000)"
fill="#000000" stroke="none">
<path d="M3621 5125 c-78 -9 -107 -17 -117 -30 -7 -9 -29 -88 -50 -174 -20
-86 -40 -160 -43 -164 -4 -4 -456 -7 -1003 -7 l-996 0 -55 -77 c-96 -139 -132
-204 -116 -214 8 -5 289 -9 624 -9 383 0 624 -4 647 -10 82 -23 130 -108 108
-192 -14 -53 -63 -105 -110 -118 -22 -6 -383 -10 -955 -10 -526 0 -937 -4
-960 -10 -26 -6 -53 -23 -78 -49 -32 -35 -37 -47 -37 -87 0 -53 25 -102 68
-130 26 -18 68 -19 875 -22 466 -1 847 -5 847 -8 0 -2 -14 -32 -30 -65 -17
-33 -46 -103 -66 -156 -19 -54 -40 -101 -47 -106 -7 -4 -442 -5 -968 -2 -1059
8 -1046 9 -1098 -51 -36 -40 -45 -71 -38 -124 5 -41 29 -79 62 -102 16 -10
164 -14 765 -18 l745 -5 35 -22 c71 -44 100 -143 64 -219 -10 -21 -35 -45 -63
-62 l-46 -27 -367 -5 c-351 -5 -368 -6 -395 -26 -85 -63 -80 -180 11 -248 27
-21 39 -21 661 -24 l634 -3 6 -29 c4 -17 27 -83 52 -148 25 -64 47 -125 50
-134 5 -15 -21 -17 -323 -20 -286 -3 -333 -5 -360 -20 -41 -23 -51 -36 -65
-90 -11 -39 -10 -52 5 -91 11 -30 29 -53 49 -66 30 -19 55 -20 487 -23 501 -4
494 -3 554 -67 24 -25 30 -41 33 -88 5 -76 -23 -128 -87 -161 l-45 -24 -633 6
c-556 4 -634 3 -639 -10 -6 -15 55 -121 133 -231 l44 -62 603 2 c331 1 784 0
1006 -3 l404 -5 49 -190 c26 -104 51 -192 56 -197 4 -4 79 -13 168 -19 180
-14 468 0 490 24 7 6 34 91 60 187 26 96 51 180 56 187 5 7 55 26 111 43 56
17 162 61 236 97 119 58 137 64 155 53 12 -7 62 -37 111 -65 50 -29 117 -68
149 -88 69 -41 54 -47 181 62 76 65 212 206 313 324 46 53 46 55 -3 132 -82
127 -165 264 -165 271 0 4 25 56 56 116 30 60 73 162 94 226 21 64 44 120 52
124 7 4 91 28 187 52 96 25 179 50 184 55 46 46 44 603 -2 642 -10 8 -83 32
-162 53 -200 53 -222 60 -230 77 -4 8 -22 60 -39 117 -18 56 -57 152 -86 212
-30 60 -54 115 -54 123 0 8 19 43 42 78 75 116 148 243 148 259 0 58 -403 470
-459 470 -9 0 -79 -37 -156 -81 -77 -45 -151 -87 -164 -95 -22 -11 -33 -8
-111 31 -116 58 -262 119 -329 136 -32 8 -58 21 -66 34 -7 11 -32 98 -56 193
-37 151 -46 175 -65 183 -32 12 -243 29 -344 28 -47 -1 -132 -7 -189 -14z
m457 -810 c260 -50 497 -173 688 -358 113 -108 199 -228 269 -372 104 -213
135 -346 135 -586 0 -188 -14 -281 -62 -417 -130 -370 -378 -640 -733 -798
-126 -56 -228 -85 -375 -106 -128 -18 -157 -19 -255 -8 -212 22 -318 51 -490
134 -209 102 -399 269 -529 466 -77 116 -93 148 -140 273 -147 394 -92 848
147 1201 38 56 133 174 166 206 102 99 253 204 375 260 142 66 250 95 451 124
57 8 270 -3 353 -19z"/>
<path d="M3977 3738 c-23 -18 -106 -251 -484 -1359 -20 -58 -34 -113 -30 -122
5 -15 23 -17 115 -17 79 0 113 4 121 13 6 8 55 144 110 303 55 159 127 368
161 464 165 468 242 712 229 721 -22 14 -203 11 -222 -3z"/>
<path d="M4313 3508 c-17 -21 -74 -215 -68 -230 4 -7 32 -31 63 -52 129 -90
302 -222 302 -231 0 -5 -31 -30 -67 -55 -134 -90 -303 -220 -303 -233 0 -17
54 -177 69 -205 13 -25 3 -31 306 192 329 241 293 209 301 272 3 30 2 70 -2
87 -10 35 -59 75 -364 294 -96 70 -187 137 -201 150 -20 19 -28 21 -36 11z"/>
<path d="M3270 3456 c-258 -186 -458 -335 -482 -358 -25 -24 -28 -33 -28 -95
0 -43 5 -76 14 -89 8 -11 79 -67 158 -125 79 -57 205 -150 282 -206 76 -57
142 -103 146 -103 14 0 82 218 73 234 -8 14 -91 77 -271 205 l-102 73 72 57
c40 32 102 77 138 101 103 70 160 120 160 141 0 33 -63 219 -74 219 -6 0 -45
-25 -86 -54z"/>
<path d="M456 2210 c-93 -29 -134 -150 -75 -224 44 -56 50 -57 421 -57 381 1
382 1 419 71 25 46 24 94 -3 142 -41 72 -43 73 -408 75 -179 1 -338 -2 -354
-7z"/>
</g>
</svg>
